<svg xmlns="http://www.w3.org/2000/svg" xmlns:xlink="http://www.w3.org/1999/xlink" width="500" zoomAndPan="magnify" viewBox="0 0 375 374.999991" height="500" preserveAspectRatio="xMidYMid meet" version="1.0"><rect x="-37.5" width="450" fill="#ffffff" y="-37.499999" height="449.999989" fill-opacity="1"/><rect x="-37.5" width="450" fill="#ffffff" y="-37.499999" height="449.999989" fill-opacity="1"/><path fill="#7eff29" d="M 305.25 37.640625 C 296.382812 38.003906 286.371094 38.121094 283.007812 37.902344 L 276.886719 37.5 L 244.339844 69.9375 C 213.109375 101.0625 204.5625 109.175781 200.0625 111.992188 C 198.929688 112.703125 198 113.777344 198 114.378906 C 198 114.980469 201.964844 119.269531 206.8125 123.910156 C 211.660156 128.550781 222.882812 139.773438 231.75 148.855469 C 253.757812 171.386719 328.570312 246 329.152344 246 C 329.480469 246 329.558594 83.1875 329.253906 37.3125 C 329.25 36.6875 328.246094 36.703125 305.25 37.640625 M 45.75 38.8125 C 45.761719 47.8125 45.046875 90.769531 44.867188 91.929688 C 44.535156 94.058594 56.488281 106.476562 125.25 175.460938 C 156.394531 206.703125 191.492188 242.316406 203.25 254.605469 C 215.007812 266.890625 226.9375 279.347656 229.765625 282.285156 C 232.589844 285.222656 236.597656 289.480469 238.664062 291.75 C 240.734375 294.019531 248.378906 301.949219 255.652344 309.375 C 262.929688 316.800781 270.710938 324.953125 272.953125 327.492188 L 277.023438 332.109375 L 303.136719 332.128906 L 329.25 332.140625 L 329.25 307.558594 C 329.25 291.5625 329.539062 282.144531 330.078125 280.597656 C 330.734375 278.710938 330.679688 277.875 329.796875 276.53125 C 328.449219 274.472656 307.339844 252.515625 292.902344 238.15625 C 287.109375 232.398438 268.09375 213.496094 250.636719 196.15625 C 212.925781 158.691406 179.007812 124.136719 157.75 101.523438 C 153.253906 96.742188 125.828125 68.285156 110.25 52.234375 C 103.855469 45.648438 98.035156 39.636719 97.3125 38.878906 C 96.089844 37.59375 94.292969 37.5 70.875 37.5 C 47.445312 37.5 45.75 37.589844 45.75 38.8125 M 45.515625 124.273438 C 44.957031 125.179688 44.882812 329.574219 45.441406 331.027344 C 45.863281 332.128906 48.464844 332.234375 71.894531 332.09375 L 97.875 331.933594 L 99.566406 330.03125 C 106.539062 322.171875 171.734375 257.3125 173.0625 256.910156 C 173.992188 256.628906 174.75 255.863281 174.75 255.210938 C 174.75 254.558594 168.058594 247.242188 159.882812 238.949219 C 151.703125 230.660156 135.25 213.929688 123.320312 201.777344 C 111.386719 189.621094 90.984375 169.035156 77.980469 156.027344 C 64.976562 143.019531 53.136719 131.023438 51.671875 129.375 C 47.972656 125.207031 45.964844 123.542969 45.515625 124.273438 " fill-opacity="1" fill-rule="evenodd"/></svg>